<svg width="1300" height="227" viewBox="0 0 1300 227" fill="none" xmlns="http://www.w3.org/2000/svg">
<rect width="1300" height="227" fill="#0099FF"/>
<rect width="1098" height="227" fill="#0099FF"/>
<path d="M514.531 60.4C510.424 58.1133 506.247 56.5967 502.001 55.85V94H488.141V55.85C483.801 56.5967 479.624 58.1133 475.611 60.4L470.991 50.32C474.397 48.2667 478.154 46.7033 482.261 45.63C486.414 44.5567 490.684 44.02 495.071 44.02C499.457 44.02 503.704 44.5567 507.811 45.63C511.964 46.7033 515.744 48.2667 519.151 50.32L514.531 60.4ZM547.108 94.98C541.928 94.98 537.261 93.8833 533.108 91.69C529.001 89.4967 525.758 86.4633 523.378 82.59C521.045 78.7167 519.878 74.3533 519.878 69.5C519.878 64.6467 521.045 60.2833 523.378 56.41C525.758 52.5367 529.001 49.5033 533.108 47.31C537.261 45.1167 541.928 44.02 547.108 44.02C552.288 44.02 556.931 45.1167 561.038 47.31C565.191 49.5033 568.435 52.5367 570.768 56.41C573.148 60.2833 574.338 64.6467 574.338 69.5C574.338 74.3533 573.148 78.7167 570.768 82.59C568.435 86.4633 565.191 89.4967 561.038 91.69C556.931 93.8833 552.288 94.98 547.108 94.98ZM547.108 83.5C549.581 83.5 551.821 82.9167 553.828 81.75C555.835 80.5833 557.421 78.95 558.588 76.85C559.755 74.7033 560.338 72.2533 560.338 69.5C560.338 66.7467 559.755 64.32 558.588 62.22C557.421 60.0733 555.835 58.4167 553.828 57.25C551.821 56.0833 549.581 55.5 547.108 55.5C544.635 55.5 542.395 56.0833 540.388 57.25C538.381 58.4167 536.795 60.0733 535.628 62.22C534.461 64.32 533.878 66.7467 533.878 69.5C533.878 72.2533 534.461 74.7033 535.628 76.85C536.795 78.95 538.381 80.5833 540.388 81.75C542.395 82.9167 544.635 83.5 547.108 83.5ZM581.597 45H604.767C610.134 45 614.894 46.0033 619.047 48.01C623.201 50.0167 626.421 52.8633 628.707 56.55C630.994 60.2367 632.137 64.5533 632.137 69.5C632.137 74.4467 630.994 78.7633 628.707 82.45C626.421 86.1367 623.201 88.9833 619.047 90.99C614.894 92.9967 610.134 94 604.767 94H581.597V45ZM604.207 82.94C608.407 82.94 611.767 81.75 614.287 79.37C616.854 76.99 618.137 73.7 618.137 69.5C618.137 65.3 616.854 62.01 614.287 59.63C611.767 57.25 608.407 56.06 604.207 56.06H595.457V82.94H604.207ZM677.02 94.98C673.054 94.98 669.204 94.49 665.47 93.51C661.737 92.53 658.704 91.2233 656.37 89.59L660.92 79.37C663.114 80.8167 665.657 81.9833 668.55 82.87C671.444 83.7567 674.29 84.2 677.09 84.2C682.41 84.2 685.07 82.87 685.07 80.21C685.07 78.81 684.3 77.7833 682.76 77.13C681.267 76.43 678.84 75.7067 675.48 74.96C671.794 74.1667 668.714 73.3267 666.24 72.44C663.767 71.5067 661.644 70.0367 659.87 68.03C658.097 66.0233 657.21 63.3167 657.21 59.91C657.21 56.9233 658.027 54.24 659.66 51.86C661.294 49.4333 663.72 47.52 666.94 46.12C670.207 44.72 674.197 44.02 678.91 44.02C682.13 44.02 685.304 44.3933 688.43 45.14C691.557 45.84 694.31 46.89 696.69 48.29L692.42 58.58C687.754 56.06 683.227 54.8 678.84 54.8C676.087 54.8 674.08 55.22 672.82 56.06C671.56 56.8533 670.93 57.9033 670.93 59.21C670.93 60.5167 671.677 61.4967 673.17 62.15C674.664 62.8033 677.067 63.48 680.38 64.18C684.114 64.9733 687.194 65.8367 689.62 66.77C692.094 67.6567 694.217 69.1033 695.99 71.11C697.81 73.07 698.72 75.7533 698.72 79.16C698.72 82.1 697.904 84.76 696.27 87.14C694.637 89.52 692.187 91.4333 688.92 92.88C685.654 94.28 681.687 94.98 677.02 94.98ZM783.456 94.98C779.489 94.98 775.639 94.49 771.906 93.51C768.173 92.53 765.139 91.2233 762.806 89.59L767.356 79.37C769.549 80.8167 772.093 81.9833 774.986 82.87C777.879 83.7567 780.726 84.2 783.526 84.2C788.846 84.2 791.506 82.87 791.506 80.21C791.506 78.81 790.736 77.7833 789.196 77.13C787.703 76.43 785.276 75.7067 781.916 74.96C778.229 74.1667 775.149 73.3267 772.676 72.44C770.203 71.5067 768.079 70.0367 766.306 68.03C764.533 66.0233 763.646 63.3167 763.646 59.91C763.646 56.9233 764.463 54.24 766.096 51.86C767.729 49.4333 770.156 47.52 773.376 46.12C776.643 44.72 780.633 44.02 785.346 44.02C788.566 44.02 791.739 44.3933 794.866 45.14C797.993 45.84 800.746 46.89 803.126 48.29L798.856 58.58C794.189 56.06 789.663 54.8 785.276 54.8C782.523 54.8 780.516 55.22 779.256 56.06C777.996 56.8533 777.366 57.9033 777.366 59.21C777.366 60.5167 778.113 61.4967 779.606 62.15C781.099 62.8033 783.503 63.48 786.816 64.18C790.549 64.9733 793.629 65.8367 796.056 66.77C798.529 67.6567 800.653 69.1033 802.426 71.11C804.246 73.07 805.156 75.7533 805.156 79.16C805.156 82.1 804.339 84.76 802.706 87.14C801.073 89.52 798.623 91.4333 795.356 92.88C792.089 94.28 788.123 94.98 783.456 94.98ZM487.353 129.02C491.973 129.02 496.033 129.953 499.533 131.82C503.08 133.64 505.81 136.323 507.723 139.87C509.683 143.37 510.663 147.593 510.663 152.54V179H496.803V168.15H477.693V179H464.043V152.54C464.043 147.593 465 143.37 466.913 139.87C468.873 136.323 471.603 133.64 475.103 131.82C478.65 129.953 482.733 129.02 487.353 129.02ZM496.803 157.44V151.35C496.803 147.757 495.94 145.05 494.213 143.23C492.487 141.41 490.177 140.5 487.283 140.5C484.343 140.5 482.01 141.41 480.283 143.23C478.557 145.05 477.693 147.757 477.693 151.35V157.44H496.803ZM541.46 165.98H533.9V179H520.04V130H542.44C546.873 130 550.723 130.747 553.99 132.24C557.256 133.687 559.776 135.787 561.55 138.54C563.323 141.247 564.21 144.443 564.21 148.13C564.21 151.677 563.37 154.78 561.69 157.44C560.056 160.053 557.7 162.107 554.62 163.6L565.19 179H550.35L541.46 165.98ZM550.21 148.13C550.21 145.843 549.486 144.07 548.04 142.81C546.593 141.55 544.446 140.92 541.6 140.92H533.9V155.27H541.6C544.446 155.27 546.593 154.663 548.04 153.45C549.486 152.19 550.21 150.417 550.21 148.13ZM609.516 145.4C605.409 143.113 601.233 141.597 596.986 140.85V179H583.126V140.85C578.786 141.597 574.609 143.113 570.596 145.4L565.976 135.32C569.383 133.267 573.139 131.703 577.246 130.63C581.399 129.557 585.669 129.02 590.056 129.02C594.443 129.02 598.689 129.557 602.796 130.63C606.949 131.703 610.729 133.267 614.136 135.32L609.516 145.4ZM637.597 140.71V168.29H645.507V179H615.757V168.29H623.737V140.71H615.757V130H645.507V140.71H637.597ZM670.219 179.98C666.252 179.98 662.402 179.49 658.669 178.51C654.935 177.53 651.902 176.223 649.569 174.59L654.119 164.37C656.312 165.817 658.855 166.983 661.749 167.87C664.642 168.757 667.489 169.2 670.289 169.2C675.609 169.2 678.269 167.87 678.269 165.21C678.269 163.81 677.499 162.783 675.959 162.13C674.465 161.43 672.039 160.707 668.679 159.96C664.992 159.167 661.912 158.327 659.439 157.44C656.965 156.507 654.842 155.037 653.069 153.03C651.295 151.023 650.409 148.317 650.409 144.91C650.409 141.923 651.225 139.24 652.859 136.86C654.492 134.433 656.919 132.52 660.139 131.12C663.405 129.72 667.395 129.02 672.109 129.02C675.329 129.02 678.502 129.393 681.629 130.14C684.755 130.84 687.509 131.89 689.889 133.29L685.619 143.58C680.952 141.06 676.425 139.8 672.039 139.8C669.285 139.8 667.279 140.22 666.019 141.06C664.759 141.853 664.129 142.903 664.129 144.21C664.129 145.517 664.875 146.497 666.369 147.15C667.862 147.803 670.265 148.48 673.579 149.18C677.312 149.973 680.392 150.837 682.819 151.77C685.292 152.657 687.415 154.103 689.189 156.11C691.009 158.07 691.919 160.753 691.919 164.16C691.919 167.1 691.102 169.76 689.469 172.14C687.835 174.52 685.385 176.433 682.119 177.88C678.852 179.28 674.885 179.98 670.219 179.98ZM735.571 145.4C731.464 143.113 727.287 141.597 723.041 140.85V179H709.181V140.85C704.841 141.597 700.664 143.113 696.651 145.4L692.031 135.32C695.437 133.267 699.194 131.703 703.301 130.63C707.454 129.557 711.724 129.02 716.111 129.02C720.497 129.02 724.744 129.557 728.851 130.63C733.004 131.703 736.784 133.267 740.191 135.32L735.571 145.4ZM766.328 129.02C770.948 129.02 775.008 129.953 778.508 131.82C782.055 133.64 784.785 136.323 786.698 139.87C788.658 143.37 789.638 147.593 789.638 152.54V179H775.778V168.15H756.668V179H743.018V152.54C743.018 147.593 743.975 143.37 745.888 139.87C747.848 136.323 750.578 133.64 754.078 131.82C757.625 129.953 761.708 129.02 766.328 129.02ZM775.778 157.44V151.35C775.778 147.757 774.915 145.05 773.188 143.23C771.461 141.41 769.151 140.5 766.258 140.5C763.318 140.5 760.985 141.41 759.258 143.23C757.531 145.05 756.668 147.757 756.668 151.35V157.44H775.778ZM816.234 179.98C812.268 179.98 808.418 179.49 804.684 178.51C800.951 177.53 797.918 176.223 795.584 174.59L800.134 164.37C802.328 165.817 804.871 166.983 807.764 167.87C810.658 168.757 813.504 169.2 816.304 169.2C821.624 169.2 824.284 167.87 824.284 165.21C824.284 163.81 823.514 162.783 821.974 162.13C820.481 161.43 818.054 160.707 814.694 159.96C811.008 159.167 807.928 158.327 805.454 157.44C802.981 156.507 800.858 155.037 799.084 153.03C797.311 151.023 796.424 148.317 796.424 144.91C796.424 141.923 797.241 139.24 798.874 136.86C800.508 134.433 802.934 132.52 806.154 131.12C809.421 129.72 813.411 129.02 818.124 129.02C821.344 129.02 824.518 129.393 827.644 130.14C830.771 130.84 833.524 131.89 835.904 133.29L831.634 143.58C826.968 141.06 822.441 139.8 818.054 139.8C815.301 139.8 813.294 140.22 812.034 141.06C810.774 141.853 810.144 142.903 810.144 144.21C810.144 145.517 810.891 146.497 812.384 147.15C813.878 147.803 816.281 148.48 819.594 149.18C823.328 149.973 826.408 150.837 828.834 151.77C831.308 152.657 833.431 154.103 835.204 156.11C837.024 158.07 837.934 160.753 837.934 164.16C837.934 167.1 837.118 169.76 835.484 172.14C833.851 174.52 831.401 176.433 828.134 177.88C824.868 179.28 820.901 179.98 816.234 179.98Z" fill="black"/>
<path d="M638.288 40.3907C638.936 37.4949 643.064 37.4949 643.712 40.3907L645.164 46.869C645.736 49.4219 648.666 50.6355 650.876 49.2349L656.483 45.6806C658.99 44.0918 661.908 47.0101 660.319 49.5166L656.765 55.124C655.364 57.3336 656.578 60.2637 659.131 60.8358L665.609 62.2875C668.505 62.9365 668.505 67.0635 665.609 67.7125L659.131 69.1642C656.578 69.7363 655.364 72.6664 656.765 74.876L660.319 80.4834C661.908 82.9899 658.99 85.9082 656.483 84.3194L650.876 80.7651C648.666 79.3645 645.736 80.5781 645.164 83.131L643.712 89.6093C643.064 92.5051 638.936 92.5051 638.288 89.6093L636.836 83.131C636.264 80.5781 633.334 79.3645 631.124 80.7651L625.517 84.3194C623.01 85.9082 620.092 82.9899 621.681 80.4834L625.235 74.876C626.636 72.6664 625.422 69.7363 622.869 69.1642L616.391 67.7125C613.495 67.0635 613.495 62.9365 616.391 62.2875L622.869 60.8358C625.422 60.2637 626.636 57.3336 625.235 55.124L621.681 49.5166C620.092 47.0101 623.01 44.0918 625.517 45.6806L631.124 49.2349C633.334 50.6355 636.264 49.4219 636.836 46.869L638.288 40.3907Z" fill="#FF24BD" stroke="black"/>
<path d="M735.288 40.3907C735.936 37.4949 740.064 37.4949 740.712 40.3907L742.164 46.869C742.736 49.4219 745.666 50.6355 747.876 49.2349L753.483 45.6806C755.99 44.0918 758.908 47.0101 757.319 49.5166L753.765 55.124C752.364 57.3336 753.578 60.2637 756.131 60.8358L762.609 62.2875C765.505 62.9365 765.505 67.0635 762.609 67.7125L756.131 69.1642C753.578 69.7363 752.364 72.6664 753.765 74.876L757.319 80.4834C758.908 82.9899 755.99 85.9082 753.483 84.3194L747.876 80.7651C745.666 79.3645 742.736 80.5781 742.164 83.131L740.712 89.6093C740.064 92.5051 735.936 92.5051 735.288 89.6093L733.836 83.131C733.264 80.5781 730.334 79.3645 728.124 80.7651L722.517 84.3194C720.01 85.9082 717.092 82.9899 718.681 80.4834L722.235 74.876C723.636 72.6664 722.422 69.7363 719.869 69.1642L713.391 67.7125C710.495 67.0635 710.495 62.9365 713.391 62.2875L719.869 60.8358C722.422 60.2637 723.636 57.3336 722.235 55.124L718.681 49.5166C717.092 47.0101 720.01 44.0918 722.517 45.6806L728.124 49.2349C730.334 50.6355 733.264 49.4219 733.836 46.869L735.288 40.3907Z" fill="#FF24BD" stroke="black"/>
</svg>
