<svg width="1098" height="227" viewBox="0 0 1098 227" fill="none" xmlns="http://www.w3.org/2000/svg">
<rect width="1098" height="227" fill="#ABA0FA"/>
<rect width="1098" height="227" fill="#ADA2FC"/>
<path d="M413.531 63.4C409.424 61.1133 405.247 59.5967 401.001 58.85V97H387.141V58.85C382.801 59.5967 378.624 61.1133 374.611 63.4L369.991 53.32C373.397 51.2667 377.154 49.7033 381.261 48.63C385.414 47.5567 389.684 47.02 394.071 47.02C398.457 47.02 402.704 47.5567 406.811 48.63C410.964 49.7033 414.744 51.2667 418.151 53.32L413.531 63.4ZM446.108 97.98C440.928 97.98 436.261 96.8833 432.108 94.69C428.001 92.4967 424.758 89.4633 422.378 85.59C420.045 81.7167 418.878 77.3533 418.878 72.5C418.878 67.6467 420.045 63.2833 422.378 59.41C424.758 55.5367 428.001 52.5033 432.108 50.31C436.261 48.1167 440.928 47.02 446.108 47.02C451.288 47.02 455.931 48.1167 460.038 50.31C464.191 52.5033 467.435 55.5367 469.768 59.41C472.148 63.2833 473.338 67.6467 473.338 72.5C473.338 77.3533 472.148 81.7167 469.768 85.59C467.435 89.4633 464.191 92.4967 460.038 94.69C455.931 96.8833 451.288 97.98 446.108 97.98ZM446.108 86.5C448.581 86.5 450.821 85.9167 452.828 84.75C454.835 83.5833 456.421 81.95 457.588 79.85C458.755 77.7033 459.338 75.2533 459.338 72.5C459.338 69.7467 458.755 67.32 457.588 65.22C456.421 63.0733 454.835 61.4167 452.828 60.25C450.821 59.0833 448.581 58.5 446.108 58.5C443.635 58.5 441.395 59.0833 439.388 60.25C437.381 61.4167 435.795 63.0733 434.628 65.22C433.461 67.32 432.878 69.7467 432.878 72.5C432.878 75.2533 433.461 77.7033 434.628 79.85C435.795 81.95 437.381 83.5833 439.388 84.75C441.395 85.9167 443.635 86.5 446.108 86.5ZM480.597 48H503.767C509.134 48 513.894 49.0033 518.047 51.01C522.201 53.0167 525.421 55.8633 527.707 59.55C529.994 63.2367 531.137 67.5533 531.137 72.5C531.137 77.4467 529.994 81.7633 527.707 85.45C525.421 89.1367 522.201 91.9833 518.047 93.99C513.894 95.9967 509.134 97 503.767 97H480.597V48ZM503.207 85.94C507.407 85.94 510.767 84.75 513.287 82.37C515.854 79.99 517.137 76.7 517.137 72.5C517.137 68.3 515.854 65.01 513.287 62.63C510.767 60.25 507.407 59.06 503.207 59.06H494.457V85.94H503.207ZM576.02 97.98C572.054 97.98 568.204 97.49 564.47 96.51C560.737 95.53 557.704 94.2233 555.37 92.59L559.92 82.37C562.114 83.8167 564.657 84.9833 567.55 85.87C570.444 86.7567 573.29 87.2 576.09 87.2C581.41 87.2 584.07 85.87 584.07 83.21C584.07 81.81 583.3 80.7833 581.76 80.13C580.267 79.43 577.84 78.7067 574.48 77.96C570.794 77.1667 567.714 76.3267 565.24 75.44C562.767 74.5067 560.644 73.0367 558.87 71.03C557.097 69.0233 556.21 66.3167 556.21 62.91C556.21 59.9233 557.027 57.24 558.66 54.86C560.294 52.4333 562.72 50.52 565.94 49.12C569.207 47.72 573.197 47.02 577.91 47.02C581.13 47.02 584.304 47.3933 587.43 48.14C590.557 48.84 593.31 49.89 595.69 51.29L591.42 61.58C586.754 59.06 582.227 57.8 577.84 57.8C575.087 57.8 573.08 58.22 571.82 59.06C570.56 59.8533 569.93 60.9033 569.93 62.21C569.93 63.5167 570.677 64.4967 572.17 65.15C573.664 65.8033 576.067 66.48 579.38 67.18C583.114 67.9733 586.194 68.8367 588.62 69.77C591.094 70.6567 593.217 72.1033 594.99 74.11C596.81 76.07 597.72 78.7533 597.72 82.16C597.72 85.1 596.904 87.76 595.27 90.14C593.637 92.52 591.187 94.4333 587.92 95.88C584.654 97.28 580.687 97.98 576.02 97.98ZM682.456 97.98C678.489 97.98 674.639 97.49 670.906 96.51C667.173 95.53 664.139 94.2233 661.806 92.59L666.356 82.37C668.549 83.8167 671.093 84.9833 673.986 85.87C676.879 86.7567 679.726 87.2 682.526 87.2C687.846 87.2 690.506 85.87 690.506 83.21C690.506 81.81 689.736 80.7833 688.196 80.13C686.703 79.43 684.276 78.7067 680.916 77.96C677.229 77.1667 674.149 76.3267 671.676 75.44C669.203 74.5067 667.079 73.0367 665.306 71.03C663.533 69.0233 662.646 66.3167 662.646 62.91C662.646 59.9233 663.463 57.24 665.096 54.86C666.729 52.4333 669.156 50.52 672.376 49.12C675.643 47.72 679.633 47.02 684.346 47.02C687.566 47.02 690.739 47.3933 693.866 48.14C696.993 48.84 699.746 49.89 702.126 51.29L697.856 61.58C693.189 59.06 688.663 57.8 684.276 57.8C681.523 57.8 679.516 58.22 678.256 59.06C676.996 59.8533 676.366 60.9033 676.366 62.21C676.366 63.5167 677.113 64.4967 678.606 65.15C680.099 65.8033 682.503 66.48 685.816 67.18C689.549 67.9733 692.629 68.8367 695.056 69.77C697.529 70.6567 699.653 72.1033 701.426 74.11C703.246 76.07 704.156 78.7533 704.156 82.16C704.156 85.1 703.339 87.76 701.706 90.14C700.073 92.52 697.623 94.4333 694.356 95.88C691.089 97.28 687.123 97.98 682.456 97.98ZM363.202 133C367.636 133 371.486 133.747 374.752 135.24C378.019 136.687 380.539 138.787 382.312 141.54C384.086 144.247 384.972 147.443 384.972 151.13C384.972 154.817 384.086 158.013 382.312 160.72C380.539 163.427 378.019 165.527 374.752 167.02C371.486 168.467 367.636 169.19 363.202 169.19H354.662V182H340.802V133H363.202ZM362.362 158.27C365.209 158.27 367.356 157.663 368.802 156.45C370.249 155.19 370.972 153.417 370.972 151.13C370.972 148.843 370.249 147.07 368.802 145.81C367.356 144.55 365.209 143.92 362.362 143.92H354.662V158.27H362.362ZM413.15 168.98H405.59V182H391.73V133H414.13C418.563 133 422.413 133.747 425.68 135.24C428.947 136.687 431.467 138.787 433.24 141.54C435.013 144.247 435.9 147.443 435.9 151.13C435.9 154.677 435.06 157.78 433.38 160.44C431.747 163.053 429.39 165.107 426.31 166.6L436.88 182H422.04L413.15 168.98ZM421.9 151.13C421.9 148.843 421.177 147.07 419.73 145.81C418.283 144.55 416.137 143.92 413.29 143.92H405.59V158.27H413.29C416.137 158.27 418.283 157.663 419.73 156.45C421.177 155.19 421.9 153.417 421.9 151.13ZM468.256 182.98C463.076 182.98 458.41 181.883 454.256 179.69C450.15 177.497 446.906 174.463 444.526 170.59C442.193 166.717 441.026 162.353 441.026 157.5C441.026 152.647 442.193 148.283 444.526 144.41C446.906 140.537 450.15 137.503 454.256 135.31C458.41 133.117 463.076 132.02 468.256 132.02C473.436 132.02 478.08 133.117 482.186 135.31C486.34 137.503 489.583 140.537 491.916 144.41C494.296 148.283 495.486 152.647 495.486 157.5C495.486 162.353 494.296 166.717 491.916 170.59C489.583 174.463 486.34 177.497 482.186 179.69C478.08 181.883 473.436 182.98 468.256 182.98ZM468.256 171.5C470.73 171.5 472.97 170.917 474.976 169.75C476.983 168.583 478.57 166.95 479.736 164.85C480.903 162.703 481.486 160.253 481.486 157.5C481.486 154.747 480.903 152.32 479.736 150.22C478.57 148.073 476.983 146.417 474.976 145.25C472.97 144.083 470.73 143.5 468.256 143.5C465.783 143.5 463.543 144.083 461.536 145.25C459.53 146.417 457.943 148.073 456.776 150.22C455.61 152.32 455.026 154.747 455.026 157.5C455.026 160.253 455.61 162.703 456.776 164.85C457.943 166.95 459.53 168.583 461.536 169.75C463.543 170.917 465.783 171.5 468.256 171.5ZM502.746 133H525.916C531.282 133 536.042 134.003 540.196 136.01C544.349 138.017 547.569 140.863 549.856 144.55C552.142 148.237 553.286 152.553 553.286 157.5C553.286 162.447 552.142 166.763 549.856 170.45C547.569 174.137 544.349 176.983 540.196 178.99C536.042 180.997 531.282 182 525.916 182H502.746V133ZM525.356 170.94C529.556 170.94 532.916 169.75 535.436 167.37C538.002 164.99 539.286 161.7 539.286 157.5C539.286 153.3 538.002 150.01 535.436 147.63C532.916 145.25 529.556 144.06 525.356 144.06H516.606V170.94H525.356ZM606.148 133V182H592.708V176.4C591.121 178.547 589.114 180.18 586.688 181.3C584.261 182.42 581.531 182.98 578.498 182.98C572.711 182.98 568.208 181.137 564.988 177.45C561.768 173.717 560.158 168.42 560.158 161.56V133H574.018V161.14C574.018 164.593 574.788 167.183 576.328 168.91C577.914 170.637 580.061 171.5 582.768 171.5C585.614 171.5 587.901 170.567 589.628 168.7C591.401 166.833 592.288 164.08 592.288 160.44V133H606.148ZM653.609 148.4C649.502 146.113 645.325 144.597 641.079 143.85V182H627.219V143.85C622.879 144.597 618.702 146.113 614.689 148.4L610.069 138.32C613.475 136.267 617.232 134.703 621.339 133.63C625.492 132.557 629.762 132.02 634.149 132.02C638.535 132.02 642.782 132.557 646.889 133.63C651.042 134.703 654.822 136.267 658.229 138.32L653.609 148.4ZM686.186 182.98C681.006 182.98 676.34 181.883 672.186 179.69C668.08 177.497 664.836 174.463 662.456 170.59C660.123 166.717 658.956 162.353 658.956 157.5C658.956 152.647 660.123 148.283 662.456 144.41C664.836 140.537 668.08 137.503 672.186 135.31C676.34 133.117 681.006 132.02 686.186 132.02C691.366 132.02 696.01 133.117 700.116 135.31C704.27 137.503 707.513 140.537 709.846 144.41C712.226 148.283 713.416 152.647 713.416 157.5C713.416 162.353 712.226 166.717 709.846 170.59C707.513 174.463 704.27 177.497 700.116 179.69C696.01 181.883 691.366 182.98 686.186 182.98ZM686.186 171.5C688.66 171.5 690.9 170.917 692.906 169.75C694.913 168.583 696.5 166.95 697.666 164.85C698.833 162.703 699.416 160.253 699.416 157.5C699.416 154.747 698.833 152.32 697.666 150.22C696.5 148.073 694.913 146.417 692.906 145.25C690.9 144.083 688.66 143.5 686.186 143.5C683.713 143.5 681.473 144.083 679.466 145.25C677.46 146.417 675.873 148.073 674.706 150.22C673.54 152.32 672.956 154.747 672.956 157.5C672.956 160.253 673.54 162.703 674.706 164.85C675.873 166.95 677.46 168.583 679.466 169.75C681.473 170.917 683.713 171.5 686.186 171.5ZM737.895 182.98C733.929 182.98 730.079 182.49 726.345 181.51C722.612 180.53 719.579 179.223 717.245 177.59L721.795 167.37C723.989 168.817 726.532 169.983 729.425 170.87C732.319 171.757 735.165 172.2 737.965 172.2C743.285 172.2 745.945 170.87 745.945 168.21C745.945 166.81 745.175 165.783 743.635 165.13C742.142 164.43 739.715 163.707 736.355 162.96C732.669 162.167 729.589 161.327 727.115 160.44C724.642 159.507 722.519 158.037 720.745 156.03C718.972 154.023 718.085 151.317 718.085 147.91C718.085 144.923 718.902 142.24 720.535 139.86C722.169 137.433 724.595 135.52 727.815 134.12C731.082 132.72 735.072 132.02 739.785 132.02C743.005 132.02 746.179 132.393 749.305 133.14C752.432 133.84 755.185 134.89 757.565 136.29L753.295 146.58C748.629 144.06 744.102 142.8 739.715 142.8C736.962 142.8 734.955 143.22 733.695 144.06C732.435 144.853 731.805 145.903 731.805 147.21C731.805 148.517 732.552 149.497 734.045 150.15C735.539 150.803 737.942 151.48 741.255 152.18C744.989 152.973 748.069 153.837 750.495 154.77C752.969 155.657 755.092 157.103 756.865 159.11C758.685 161.07 759.595 163.753 759.595 167.16C759.595 170.1 758.779 172.76 757.145 175.14C755.512 177.52 753.062 179.433 749.795 180.88C746.529 182.28 742.562 182.98 737.895 182.98Z" fill="black"/>
<path d="M534.288 47.3907C534.936 44.4949 539.064 44.4949 539.712 47.3907L541.164 53.869C541.736 56.4219 544.666 57.6355 546.876 56.2349L552.483 52.6806C554.99 51.0918 557.908 54.0101 556.319 56.5166L552.765 62.124C551.364 64.3336 552.578 67.2637 555.131 67.8358L561.609 69.2875C564.505 69.9365 564.505 74.0635 561.609 74.7125L555.131 76.1642C552.578 76.7363 551.364 79.6664 552.765 81.876L556.319 87.4834C557.908 89.9899 554.99 92.9082 552.483 91.3194L546.876 87.7651C544.666 86.3645 541.736 87.5781 541.164 90.131L539.712 96.6093C539.064 99.5051 534.936 99.5051 534.288 96.6093L532.836 90.131C532.264 87.5781 529.334 86.3645 527.124 87.7651L521.517 91.3194C519.01 92.9082 516.092 89.9899 517.681 87.4834L521.235 81.876C522.636 79.6664 521.422 76.7363 518.869 76.1642L512.391 74.7125C509.495 74.0635 509.495 69.9365 512.391 69.2875L518.869 67.8358C521.422 67.2637 522.636 64.3336 521.235 62.124L517.681 56.5166C516.092 54.0101 519.01 51.0918 521.517 52.6806L527.124 56.2349C529.334 57.6355 532.264 56.4219 532.836 53.869L534.288 47.3907Z" fill="#F6F099" stroke="black"/>
<path d="M641.288 47.3907C641.936 44.4949 646.064 44.4949 646.712 47.3907L648.164 53.869C648.736 56.4219 651.666 57.6355 653.876 56.2349L659.483 52.6806C661.99 51.0918 664.908 54.0101 663.319 56.5166L659.765 62.124C658.364 64.3336 659.578 67.2637 662.131 67.8358L668.609 69.2875C671.505 69.9365 671.505 74.0635 668.609 74.7125L662.131 76.1642C659.578 76.7363 658.364 79.6664 659.765 81.876L663.319 87.4834C664.908 89.9899 661.99 92.9082 659.483 91.3194L653.876 87.7651C651.666 86.3645 648.736 87.5781 648.164 90.131L646.712 96.6093C646.064 99.5051 641.936 99.5051 641.288 96.6093L639.836 90.131C639.264 87.5781 636.334 86.3645 634.124 87.7651L628.517 91.3194C626.01 92.9082 623.092 89.9899 624.681 87.4834L628.235 81.876C629.636 79.6664 628.422 76.7363 625.869 76.1642L619.391 74.7125C616.495 74.0635 616.495 69.9365 619.391 69.2875L625.869 67.8358C628.422 67.2637 629.636 64.3336 628.235 62.124L624.681 56.5166C623.092 54.0101 626.01 51.0918 628.517 52.6806L634.124 56.2349C636.334 57.6355 639.264 56.4219 639.836 53.869L641.288 47.3907Z" fill="#F6F099" stroke="black"/>
</svg>
