<svg width="284" height="123" viewBox="0 0 284 123" fill="none" xmlns="http://www.w3.org/2000/svg">
<path d="M13.1419 26.259C25.2111 11.467 45.1221 16.3441 53.569 20.6316C60.405 24.2045 76.2694 27.9204 85.0384 14.2003C93.8074 0.480242 111.793 0.0872207 119.69 1.60572C123.658 2.097 137.558 5.3037 161.414 14.2003C185.269 23.0969 206.162 22.1948 213.627 20.6316C230.521 18.6218 266.901 20.2564 277.273 42.8731C287.645 65.4898 281.595 90.7058 277.273 100.487C275.78 105.131 267.42 115.815 245.922 121.388C224.423 126.962 180.625 103.881 161.414 91.6437C158.428 90.0805 149.529 87.3751 129.539 85.9817C109.549 84.5883 90.853 98.3837 85.0384 104.056C78.9095 108.701 63.5637 114.421 51.2117 114.421C14.0612 113.671 2.49495 81.3268 1.35561 65.2486C0.255553 58.4154 1.07274 41.0509 13.1419 26.259Z" fill="white" stroke="black" stroke-width="0.168454"/>
<path d="M19.3005 32.043C30.7961 19.6493 49.7607 23.7356 57.8061 27.328C64.3172 30.3216 79.4276 33.435 87.7798 21.9394C96.132 10.4439 113.263 10.1146 120.785 11.3869C124.564 11.7985 137.803 14.4853 160.525 21.9394C183.247 29.3936 203.147 28.6377 210.257 27.328C226.347 25.6441 260.999 27.0137 270.878 45.9633C280.757 64.913 274.994 86.0406 270.878 94.2356C269.456 98.1273 261.493 107.078 241.016 111.748C220.54 116.418 178.824 97.0796 160.525 86.8264C157.681 85.5167 147.233 82.6054 128.194 81.4379C109.154 80.2703 93.318 89.4832 87.7798 94.2356C81.9422 98.1273 67.3258 105.911 55.5609 105.911C20.1762 105.282 9.15961 78.1823 8.07442 64.7109C7.02665 58.9856 7.805 44.4366 19.3005 32.043Z" fill="black"/>
<path d="M229.606 97.4875C225.888 68.0143 233.196 48.1766 237.314 41.9419C276.196 41.9419 270.415 75.496 269.168 80.257C261.188 109.458 239.468 103.911 229.606 97.4875Z" fill="white" stroke="black" stroke-width="0.775821"/>
<path d="M244.229 74.1358C243.436 67.561 248.537 66.6541 248.99 66.5407C252.731 65.8606 253.184 69.0346 253.184 70.8484C253.366 78.7381 249.708 80.4082 247.857 80.2571C246.912 80.4082 244.864 79.3956 244.229 74.1358Z" fill="black" stroke="black" stroke-width="0.155164"/>
<path d="M202.173 46.0228C210.698 33.3267 226.961 38.6167 234.027 42.8488L228.472 64.7269C223.9 59.6258 214.711 53.119 214.529 67.901C214.348 82.6829 223.296 80.1814 227.792 77.083V98.5077C210.108 103.405 201.531 95.5604 199.453 91.0261C196.808 81.315 193.649 58.7189 202.173 46.0228Z" fill="white" stroke="black" stroke-width="0.775821"/>
<path d="M139.741 71.9029L138.719 25.0674C152.921 26.3148 153.489 27.7891 160.533 30.3973C167.577 33.0056 167.123 37.4283 167.009 46.7274C166.935 52.8073 160.633 53.8476 155.769 53.4882C158.206 54.118 160.413 55.3236 161.442 56.0265C164.283 59.3908 168.827 67.7297 164.283 74.171C159.738 80.6123 146.028 75.3428 139.741 71.9029Z" fill="white" stroke="black" stroke-width="0.775821"/>
<path d="M170.546 81.5038C159.936 76.1533 164.992 48.7432 168.846 35.707C174.106 35.707 178.066 38.7299 179.388 40.2414C176.781 49.31 173.471 67.9688 181.089 70.0546C190.611 72.6618 189.137 41.0349 190.837 39.6746C192.198 38.5863 199.566 39.2211 203.08 39.6746C192.923 63.0717 195.447 83.053 197.979 90.119C196.165 91.2073 190.8 90.5725 188.344 90.119C186.832 89.4767 181.157 86.8543 170.546 81.5038Z" fill="white" stroke="black" stroke-width="0.775821"/>
<path d="M150.255 38.9948C151.343 36.3649 153.278 36.6898 154.109 37.1811C154.714 37.2944 155.628 38.2693 154.449 41.2619C153.27 44.2546 151.162 44.0203 150.255 43.5291C149.802 43.1135 149.167 41.6247 150.255 38.9948Z" fill="black" stroke="black" stroke-width="0.155164"/>
<path d="M148.441 63.5932C148.169 60.6006 149.688 60.0035 150.482 60.0791C150.748 60.0791 152.522 59.739 153.429 62.7997C154.155 65.2483 152.673 66.465 151.842 66.7673C150.822 66.9562 148.713 66.5859 148.441 63.5932Z" fill="black" stroke="black" stroke-width="0.155164"/>
<path d="M104.572 40.4683C104.572 43.7557 105.932 73.909 107.632 76.7429C109.333 79.5769 119.127 76.4029 121.122 75.0426C123.117 73.6823 119.535 69.0346 120.329 63.2533C121.122 57.472 124.749 59.3991 125.543 62.4598C126.178 64.9083 126.337 70.0548 126.337 72.322C131.415 75.8588 137.143 73.2666 139.373 71.5285C139.108 61.1751 138.398 38.4278 137.672 30.266C136.947 22.1042 131.4 20.7439 128.717 21.084C125.883 20.6684 118.197 20.0865 110.126 21.084C100.037 22.3309 104.572 37.1809 104.572 40.4683Z" fill="white" stroke="black" stroke-width="0.768312"/>
<path d="M116.701 39.3345C115.613 44.3223 120.631 46.0227 123.276 46.2494C129.851 46.2494 127.017 44.549 128.944 41.6017C130.485 39.2438 129.208 37.7475 128.377 37.2941C124.938 35.896 117.789 34.3468 116.701 39.3345Z" fill="black" stroke="black" stroke-width="0.155164"/>
<path d="M78.7259 88.1921C71.8337 76.4935 71.6977 50.5949 72.4912 39.1079C76.1565 37.2564 84.1671 33.576 86.8877 33.6667C90.2885 33.78 88.8148 54.7513 88.9282 61.2128C89.0189 66.3819 91.3087 65.5582 92.4423 64.5002C97.0673 58.1521 98.677 55.2048 101.624 55.2048C104.572 55.2048 107.066 71.7929 106.839 77.0829C99.6746 83.6124 85.1118 87.2096 78.7259 88.1921Z" fill="white" stroke="black" stroke-width="0.775821"/>
<path d="M46.4188 96.1271C43.5168 92.5903 42.3379 54.0711 42.1112 35.2536C53.447 33.0771 66.71 37.0674 71.9244 39.3345C70.2014 57.3812 75.363 79.6523 78.1592 88.532C72.5366 97.7821 54.6562 97.4496 46.4188 96.1271Z" fill="white" stroke="black" stroke-width="0.775821"/>
<path d="M57.1879 73.4557C53.9232 73.6371 54.165 64.1604 54.694 59.3993C56.7798 57.9483 59.115 58.7947 60.0219 59.3993C61.4729 61.4851 62.0623 69.3371 62.1757 73.0023C61.8734 73.0779 60.4526 73.2744 57.1879 73.4557Z" fill="black" stroke="black" stroke-width="0.155164"/>
<path d="M41.5445 35.1403V59.5123C37.9926 59.5123 31.2515 60.7819 32.7025 65.8604C34.0628 72.7526 39.7685 71.6039 42.4513 70.168L44.4918 95.2202C35.7859 97.2153 25.8255 89.25 21.9335 85.0179C17.0969 78.6321 9.35071 62.2556 17.0591 47.8364C24.7674 33.4172 36.5945 33.3643 41.5445 35.1403Z" fill="white" stroke="black" stroke-width="0.775821"/>
</svg>
